<svg xmlns="http://www.w3.org/2000/svg" width="600" height="400" viewBox="0 0 600 400" role="img" aria-label="Preview of the enterprise procurement template">
	<rect width="600" height="400" fill="#f3f5f9"/>
	<rect x="220" y="34" width="160" height="17" rx="3" fill="#2b3440"/><rect x="160" y="63" width="280" height="9" rx="3" fill="#c7ccd4"/>
	<rect x="80" y="96" width="252" height="32" rx="5" fill="#ffffff" stroke="#dde1e7"/>
	<rect x="80" y="96" width="3" height="32" rx="1.5" fill="#1e293b"/>
	<rect x="94" y="108" width="148" height="8" rx="3" fill="#2b3440"/>
	<path d="M306 108l6.5 6.5 6.5-6.5" fill="none" stroke="#1e293b" stroke-width="2.2" stroke-linecap="round"/>
	<rect x="80" y="136" width="252" height="32" rx="5" fill="#ffffff" stroke="#dde1e7"/>
	<rect x="80" y="136" width="3" height="32" rx="1.5" fill="#1e293b"/>
	<rect x="94" y="148" width="110" height="8" rx="3" fill="#2b3440"/>
	<path d="M306 148l6.5 6.5 6.5-6.5" fill="none" stroke="#1e293b" stroke-width="2.2" stroke-linecap="round"/>
	<rect x="80" y="176" width="252" height="32" rx="5" fill="#ffffff" stroke="#dde1e7"/>
	<rect x="80" y="176" width="3" height="32" rx="1.5" fill="#1e293b"/>
	<rect x="94" y="188" width="166" height="8" rx="3" fill="#2b3440"/>
	<path d="M306 188l6.5 6.5 6.5-6.5" fill="none" stroke="#1e293b" stroke-width="2.2" stroke-linecap="round"/>
	<rect x="80" y="216" width="252" height="32" rx="5" fill="#ffffff" stroke="#dde1e7"/>
	<rect x="80" y="216" width="3" height="32" rx="1.5" fill="#1e293b"/>
	<rect x="94" y="228" width="124" height="8" rx="3" fill="#2b3440"/>
	<path d="M306 228l6.5 6.5 6.5-6.5" fill="none" stroke="#1e293b" stroke-width="2.2" stroke-linecap="round"/>
	<rect x="80" y="256" width="252" height="32" rx="5" fill="#ffffff" stroke="#dde1e7"/>
	<rect x="80" y="256" width="3" height="32" rx="1.5" fill="#1e293b"/>
	<rect x="94" y="268" width="94" height="8" rx="3" fill="#2b3440"/>
	<path d="M306 268l6.5 6.5 6.5-6.5" fill="none" stroke="#1e293b" stroke-width="2.2" stroke-linecap="round"/>
	<rect x="356" y="96" width="124" height="13" rx="3" fill="#2b3440"/>
	<rect x="356" y="122" width="144" height="7" rx="3" fill="#8b95a3"/>
	<rect x="356" y="136" width="118" height="7" rx="3" fill="#8b95a3"/>
	<rect x="356" y="150" width="134" height="7" rx="3" fill="#8b95a3"/>
	<circle cx="360" cy="175" r="3" fill="#1e293b"/>
	<rect x="370" y="172" width="118" height="7" rx="3" fill="#8b95a3"/>
	<circle cx="360" cy="191" r="3" fill="#1e293b"/>
	<rect x="370" y="188" width="94" height="7" rx="3" fill="#8b95a3"/>
	<circle cx="360" cy="207" r="3" fill="#1e293b"/>
	<rect x="370" y="204" width="132" height="7" rx="3" fill="#8b95a3"/>
	<circle cx="360" cy="223" r="3" fill="#1e293b"/>
	<rect x="370" y="220" width="106" height="7" rx="3" fill="#8b95a3"/>
	<rect x="356" y="246" width="96" height="26" rx="6" fill="#1e293b" stroke="#1e293b"/>
	<rect x="378" y="255" width="52" height="7" rx="3" fill="#ffffff"/>
</svg>
