<svg xmlns="http://www.w3.org/2000/svg" width="600" height="400" viewBox="0 0 600 400" role="img" aria-label="Preview of the faq grid template">
	<rect width="600" height="400" fill="#f6f7f9"/>
	<rect x="180" y="34" width="240" height="18" rx="3" fill="#2b3440"/><rect x="150" y="66" width="300" height="10" rx="3" fill="#c7ccd4"/>
	<rect x="80" y="106" width="212" height="118" rx="8" fill="#ffffff" stroke="#dde1e7"/><rect x="94" y="120" width="20" height="20" rx="5" fill="#f3effe"/><rect x="94" y="152" width="120" height="9" rx="3" fill="#2b3440"/><rect x="94" y="168" width="150" height="7" rx="3" fill="#8b95a3"/><rect x="234" y="120" width="44" height="14" rx="7" fill="#7c3aed"/>
	<rect x="304" y="106" width="104" height="118" rx="8" fill="#ffffff" stroke="#dde1e7"/><rect x="318" y="120" width="20" height="20" rx="5" fill="#f3effe"/><rect x="318" y="152" width="64" height="9" rx="3" fill="#2b3440"/><rect x="318" y="168" width="76" height="7" rx="3" fill="#8b95a3"/>
	<rect x="420" y="106" width="100" height="118" rx="8" fill="#ffffff" stroke="#dde1e7"/><rect x="434" y="120" width="20" height="20" rx="5" fill="#f3effe"/><rect x="434" y="152" width="60" height="9" rx="3" fill="#2b3440"/><rect x="434" y="168" width="72" height="7" rx="3" fill="#8b95a3"/>
	<rect x="80" y="236" width="104" height="100" rx="8" fill="#ffffff" stroke="#dde1e7"/><rect x="94" y="250" width="20" height="20" rx="5" fill="#f3effe"/><rect x="94" y="282" width="64" height="9" rx="3" fill="#2b3440"/><rect x="94" y="298" width="76" height="7" rx="3" fill="#8b95a3"/>
	<rect x="196" y="236" width="212" height="100" rx="8" fill="#ffffff" stroke="#dde1e7"/><rect x="210" y="250" width="20" height="20" rx="5" fill="#f3effe"/><rect x="210" y="282" width="120" height="9" rx="3" fill="#2b3440"/><rect x="210" y="298" width="150" height="7" rx="3" fill="#8b95a3"/><rect x="350" y="250" width="44" height="14" rx="7" fill="#7c3aed"/>
	<rect x="420" y="236" width="100" height="100" rx="8" fill="#ffffff" stroke="#dde1e7"/><rect x="434" y="250" width="20" height="20" rx="5" fill="#f3effe"/><rect x="434" y="282" width="60" height="9" rx="3" fill="#2b3440"/><rect x="434" y="298" width="72" height="7" rx="3" fill="#8b95a3"/>
</svg>
