<svg xmlns="http://www.w3.org/2000/svg" width="600" height="400" viewBox="0 0 600 400" role="img" aria-label="Preview of the from the blog template">
	<rect width="600" height="400" fill="#f6f7f9"/>
	<rect x="200" y="40" width="200" height="18" rx="3" fill="#2b3440"/><rect x="150" y="72" width="300" height="10" rx="3" fill="#c7ccd4"/>
	<rect x="80" y="118" width="440" height="40" rx="4" fill="#ffffff" stroke="#dde1e7"/>
	<rect x="104" y="133" width="210" height="11" rx="3" fill="#2b3440"/>
	<path d="M474 134l7 7 7-7" fill="none" stroke="#0b81ee" stroke-width="2.5" stroke-linecap="round"/>
	<rect x="80" y="158" width="440" height="116" rx="4" fill="#ffffff" stroke="#dde1e7"/>
	<rect x="100" y="176" width="140" height="80" rx="4" fill="#c7ccd4"/>
	<rect x="256" y="180" width="120" height="8" rx="3" fill="#e94b4b"/>
	<rect x="256" y="200" width="240" height="9" rx="3" fill="#8b95a3"/>
	<rect x="256" y="218" width="240" height="9" rx="3" fill="#8b95a3"/>
	<rect x="256" y="236" width="168" height="9" rx="3" fill="#8b95a3"/>
	<rect x="80" y="282" width="440" height="40" rx="4" fill="#ffffff" stroke="#dde1e7"/>
	<rect x="104" y="297" width="176" height="11" rx="3" fill="#8b95a3"/>
	<path d="M474 298l7 7 7-7" fill="none" stroke="#0b81ee" stroke-width="2.5" stroke-linecap="round"/>
</svg>
