<svg xmlns="http://www.w3.org/2000/svg" width="600" height="400" viewBox="0 0 600 400" role="img" aria-label="Preview of the home service booking template">
	<defs>
		<linearGradient id="afaq-hs-panel" x1="0" y1="0" x2="0.4" y2="1">
			<stop offset="0" stop-color="#1b4f96"/>
			<stop offset="1" stop-color="#2a6bb5"/>
		</linearGradient>
		<linearGradient id="afaq-hs-row" x1="0" y1="0" x2="1" y2="0">
			<stop offset="0" stop-color="#2d62a6"/>
			<stop offset="1" stop-color="#3f7ec2"/>
		</linearGradient>
	</defs>

	<rect width="600" height="400" fill="#ffffff"/>
	<rect x="168" y="28" width="264" height="15" rx="3" fill="#2b3440"/>
	<rect x="216" y="53" width="168" height="15" rx="3" fill="#2b3440"/>

	<rect x="110" y="88" width="380" height="288" rx="12" fill="url(#afaq-hs-panel)"/>

	<!-- open row -->
	<rect x="128" y="104" width="344" height="42" rx="5" fill="url(#afaq-hs-row)"/>
	<rect x="140" y="117" width="16" height="16" rx="4" fill="#ffffff" fill-opacity="0.16"/>
	<rect x="143" y="124.2" width="10" height="2" rx="1" fill="#ffffff"/>
	<rect x="304" y="120" width="156" height="8" rx="4" fill="#ffffff"/>

	<rect x="128" y="146" width="344" height="72" rx="5" fill="#17457f"/>
	<rect x="150" y="166" width="300" height="7" rx="3.5" fill="#cfe0f2" fill-opacity="0.75"/>
	<rect x="150" y="183" width="300" height="7" rx="3.5" fill="#cfe0f2" fill-opacity="0.75"/>
	<rect x="150" y="200" width="188" height="7" rx="3.5" fill="#cfe0f2" fill-opacity="0.75"/>

	<!-- closed rows -->
	<g>
		<rect x="128" y="228" width="344" height="42" rx="5" fill="url(#afaq-hs-row)"/>
		<rect x="140" y="241" width="16" height="16" rx="4" fill="#ffffff" fill-opacity="0.16"/>
		<rect x="143" y="248.2" width="10" height="2" rx="1" fill="#ffffff"/>
		<rect x="146.9" y="244.3" width="2" height="10" rx="1" fill="#ffffff"/>
		<rect x="284" y="244" width="176" height="8" rx="4" fill="#ffffff" fill-opacity="0.92"/>
	</g>
	<g>
		<rect x="128" y="278" width="344" height="42" rx="5" fill="url(#afaq-hs-row)"/>
		<rect x="140" y="291" width="16" height="16" rx="4" fill="#ffffff" fill-opacity="0.16"/>
		<rect x="143" y="298.2" width="10" height="2" rx="1" fill="#ffffff"/>
		<rect x="146.9" y="294.3" width="2" height="10" rx="1" fill="#ffffff"/>
		<rect x="316" y="294" width="144" height="8" rx="4" fill="#ffffff" fill-opacity="0.92"/>
	</g>
	<g>
		<rect x="128" y="328" width="344" height="42" rx="5" fill="url(#afaq-hs-row)"/>
		<rect x="140" y="341" width="16" height="16" rx="4" fill="#ffffff" fill-opacity="0.16"/>
		<rect x="143" y="348.2" width="10" height="2" rx="1" fill="#ffffff"/>
		<rect x="146.9" y="344.3" width="2" height="10" rx="1" fill="#ffffff"/>
		<rect x="264" y="344" width="196" height="8" rx="4" fill="#ffffff" fill-opacity="0.92"/>
	</g>
</svg>
