<svg xmlns="http://www.w3.org/2000/svg" width="600" height="400" viewBox="0 0 600 400" role="img" aria-label="Preview of the pitch beside answers template">
	<rect width="600" height="400" fill="#eff4fd"/>
	<rect x="200" y="34" width="200" height="17" rx="3" fill="#2b3440"/><rect x="160" y="63" width="280" height="9" rx="3" fill="#c7ccd4"/>
	<rect x="80" y="100" width="128" height="13" rx="3" fill="#2b3440"/>
	<rect x="80" y="126" width="148" height="7" rx="3" fill="#8b95a3"/>
	<rect x="80" y="140" width="122" height="7" rx="3" fill="#8b95a3"/>
	<rect x="80" y="154" width="138" height="7" rx="3" fill="#8b95a3"/>
	<circle cx="84" cy="179" r="3" fill="#2563eb"/>
	<rect x="94" y="176" width="122" height="7" rx="3" fill="#8b95a3"/>
	<circle cx="84" cy="195" r="3" fill="#2563eb"/>
	<rect x="94" y="192" width="98" height="7" rx="3" fill="#8b95a3"/>
	<circle cx="84" cy="211" r="3" fill="#2563eb"/>
	<rect x="94" y="208" width="136" height="7" rx="3" fill="#8b95a3"/>
	<circle cx="84" cy="227" r="3" fill="#2563eb"/>
	<rect x="94" y="224" width="110" height="7" rx="3" fill="#8b95a3"/>
	<rect x="80" y="250" width="96" height="26" rx="6" fill="#2563eb" stroke="#2563eb"/>
	<rect x="102" y="259" width="52" height="7" rx="3" fill="#ffffff"/>
	<rect x="280" y="100" width="240" height="32" rx="5" fill="#ffffff" stroke="#dde1e7"/>
	<rect x="280" y="100" width="3" height="32" rx="1.5" fill="#2563eb"/>
	<rect x="294" y="112" width="150" height="8" rx="3" fill="#2b3440"/>
	<path d="M494 112l6.5 6.5 6.5-6.5" fill="none" stroke="#2563eb" stroke-width="2.2" stroke-linecap="round"/>
	<rect x="280" y="140" width="240" height="32" rx="5" fill="#ffffff" stroke="#dde1e7"/>
	<rect x="280" y="140" width="3" height="32" rx="1.5" fill="#2563eb"/>
	<rect x="294" y="152" width="112" height="8" rx="3" fill="#2b3440"/>
	<path d="M494 152l6.5 6.5 6.5-6.5" fill="none" stroke="#2563eb" stroke-width="2.2" stroke-linecap="round"/>
	<rect x="280" y="180" width="240" height="32" rx="5" fill="#ffffff" stroke="#dde1e7"/>
	<rect x="280" y="180" width="3" height="32" rx="1.5" fill="#2563eb"/>
	<rect x="294" y="192" width="168" height="8" rx="3" fill="#2b3440"/>
	<path d="M494 192l6.5 6.5 6.5-6.5" fill="none" stroke="#2563eb" stroke-width="2.2" stroke-linecap="round"/>
	<rect x="280" y="220" width="240" height="32" rx="5" fill="#ffffff" stroke="#dde1e7"/>
	<rect x="280" y="220" width="3" height="32" rx="1.5" fill="#2563eb"/>
	<rect x="294" y="232" width="126" height="8" rx="3" fill="#2b3440"/>
	<path d="M494 232l6.5 6.5 6.5-6.5" fill="none" stroke="#2563eb" stroke-width="2.2" stroke-linecap="round"/>
	<rect x="280" y="260" width="240" height="32" rx="5" fill="#ffffff" stroke="#dde1e7"/>
	<rect x="280" y="260" width="3" height="32" rx="1.5" fill="#2563eb"/>
	<rect x="294" y="272" width="96" height="8" rx="3" fill="#2b3440"/>
	<path d="M494 272l6.5 6.5 6.5-6.5" fill="none" stroke="#2563eb" stroke-width="2.2" stroke-linecap="round"/>
</svg>
