<svg xmlns="http://www.w3.org/2000/svg" width="600" height="400" viewBox="0 0 600 400" role="img" aria-label="Preview of the programme explorer template">
	<rect width="600" height="400" fill="#eff9f2"/>
	<rect x="185" y="34" width="230" height="17" rx="3" fill="#2b3440"/><rect x="160" y="63" width="280" height="9" rx="3" fill="#c7ccd4"/>
	<rect x="80" y="96" width="440" height="38" rx="8" fill="#166534" stroke="none"/>
	<rect x="104" y="110" width="176" height="10" rx="3" fill="#ffffff"/>
	<path d="M482 114h12M490 110l4 4-4 4" fill="none" stroke="#ffffff" stroke-width="2.2" stroke-linecap="round" stroke-linejoin="round"/>
	<rect x="116" y="142" width="404" height="30" rx="6" fill="#eefaf1" stroke="#dde1e7"/>
	<rect x="116" y="142" width="3" height="30" rx="1.5" fill="#15803d"/>
	<rect x="138" y="153" width="160" height="8" rx="3" fill="#2b3440"/>
	<path d="M486 156h12M494 152l4 4-4 4" fill="none" stroke="#15803d" stroke-width="2.2" stroke-linecap="round" stroke-linejoin="round"/>
	<rect x="116" y="178" width="404" height="30" rx="6" fill="#eefaf1" stroke="#dde1e7"/>
	<rect x="116" y="178" width="3" height="30" rx="1.5" fill="#15803d"/>
	<rect x="138" y="189" width="198" height="8" rx="3" fill="#2b3440"/>
	<path d="M486 192h12M494 188l4 4-4 4" fill="none" stroke="#15803d" stroke-width="2.2" stroke-linecap="round" stroke-linejoin="round"/>
	<rect x="80" y="214" width="440" height="38" rx="8" fill="#15803d" stroke="none"/>
	<rect x="104" y="228" width="150" height="10" rx="3" fill="#ffffff"/>
	<path d="M482 232h12M490 228l4 4-4 4" fill="none" stroke="#ffffff" stroke-width="2.2" stroke-linecap="round" stroke-linejoin="round"/>
	<rect x="80" y="260" width="440" height="38" rx="8" fill="#15803d" stroke="none"/>
	<rect x="104" y="274" width="208" height="10" rx="3" fill="#ffffff"/>
	<path d="M482 278h12M490 274l4 4-4 4" fill="none" stroke="#ffffff" stroke-width="2.2" stroke-linecap="round" stroke-linejoin="round"/>
</svg>
