<svg xmlns="http://www.w3.org/2000/svg" width="600" height="400" viewBox="0 0 600 400" role="img" aria-label="Preview of the dark questions answered template">
	<rect width="600" height="400" fill="#ffffff"/>
	<rect x="24" y="20" width="552" height="360" rx="22" fill="#0a0a0a"/>

	<!-- left column -->
	<rect x="56" y="58" width="122" height="18" rx="4" fill="#ffffff"/>
	<rect x="56" y="86" width="160" height="18" rx="4" fill="#ffffff"/>
	<rect x="56" y="114" width="138" height="18" rx="4" fill="#ffffff"/>

	<rect x="56" y="230" width="188" height="112" rx="14" fill="#1c1c1e"/>
	<rect x="78" y="256" width="144" height="7" rx="3.5" fill="#d4d4d8" fill-opacity="0.75"/>
	<rect x="78" y="272" width="144" height="7" rx="3.5" fill="#d4d4d8" fill-opacity="0.75"/>
	<rect x="78" y="302" width="94" height="26" rx="13" fill="#ec4899"/>
	<rect x="96" y="311" width="58" height="8" rx="4" fill="#ffffff"/>

	<!-- open card -->
	<rect x="272" y="52" width="272" height="104" rx="8" fill="#ffffff"/>
	<rect x="294" y="74" width="166" height="9" rx="4.5" fill="#111827"/>
	<circle cx="512" cy="78" r="12" fill="#ec4899"/>
	<rect x="506" y="76.8" width="12" height="2.4" rx="1.2" fill="#ffffff"/>
	<rect x="294" y="104" width="228" height="7" rx="3.5" fill="#c9ced6"/>
	<rect x="294" y="120" width="228" height="7" rx="3.5" fill="#c9ced6"/>
	<rect x="294" y="136" width="150" height="7" rx="3.5" fill="#c9ced6"/>

	<!-- closed cards -->
	<g>
		<rect x="272" y="168" width="272" height="52" rx="8" fill="#ffffff"/>
		<rect x="294" y="189" width="188" height="9" rx="4.5" fill="#111827"/>
		<circle cx="512" cy="194" r="12" fill="#ec4899"/>
		<rect x="506" y="192.8" width="12" height="2.4" rx="1.2" fill="#ffffff"/>
		<rect x="510.8" y="188" width="2.4" height="12" rx="1.2" fill="#ffffff"/>
	</g>
	<g>
		<rect x="272" y="232" width="272" height="52" rx="8" fill="#ffffff"/>
		<rect x="294" y="253" width="148" height="9" rx="4.5" fill="#111827"/>
		<circle cx="512" cy="258" r="12" fill="#ec4899"/>
		<rect x="506" y="256.8" width="12" height="2.4" rx="1.2" fill="#ffffff"/>
		<rect x="510.8" y="252" width="2.4" height="12" rx="1.2" fill="#ffffff"/>
	</g>
	<g>
		<rect x="272" y="296" width="272" height="52" rx="8" fill="#ffffff"/>
		<rect x="294" y="317" width="170" height="9" rx="4.5" fill="#111827"/>
		<circle cx="512" cy="322" r="12" fill="#ec4899"/>
		<rect x="506" y="320.8" width="12" height="2.4" rx="1.2" fill="#ffffff"/>
		<rect x="510.8" y="316" width="2.4" height="12" rx="1.2" fill="#ffffff"/>
	</g>
</svg>
