<svg xmlns="http://www.w3.org/2000/svg" width="600" height="400" viewBox="0 0 600 400" role="img" aria-label="Preview of the security privacy template">
	<rect width="600" height="400" fill="#f1f5f9"/>
	<rect x="200" y="34" width="200" height="17" rx="3" fill="#2b3440"/><rect x="160" y="63" width="280" height="9" rx="3" fill="#c7ccd4"/>
	<rect x="80" y="96" width="440" height="38" rx="8" fill="#0f172a" stroke="none"/>
	<rect x="104" y="110" width="176" height="10" rx="3" fill="#ffffff"/>
	<path d="M482 114h13M488.5 108v13" fill="none" stroke="#ffffff" stroke-width="2.2" stroke-linecap="round"/>
	<rect x="116" y="142" width="404" height="30" rx="6" fill="#f1f5f9" stroke="#dde1e7"/>
	<rect x="116" y="142" width="3" height="30" rx="1.5" fill="#1e293b"/>
	<rect x="138" y="153" width="160" height="8" rx="3" fill="#2b3440"/>
	<path d="M486 156h13M492.5 150v13" fill="none" stroke="#1e293b" stroke-width="2.2" stroke-linecap="round"/>
	<rect x="116" y="178" width="404" height="30" rx="6" fill="#f1f5f9" stroke="#dde1e7"/>
	<rect x="116" y="178" width="3" height="30" rx="1.5" fill="#1e293b"/>
	<rect x="138" y="189" width="198" height="8" rx="3" fill="#2b3440"/>
	<path d="M486 192h13M492.5 186v13" fill="none" stroke="#1e293b" stroke-width="2.2" stroke-linecap="round"/>
	<rect x="80" y="214" width="440" height="38" rx="8" fill="#1e293b" stroke="none"/>
	<rect x="104" y="228" width="150" height="10" rx="3" fill="#ffffff"/>
	<path d="M482 232h13M488.5 226v13" fill="none" stroke="#ffffff" stroke-width="2.2" stroke-linecap="round"/>
	<rect x="80" y="260" width="440" height="38" rx="8" fill="#1e293b" stroke="none"/>
	<rect x="104" y="274" width="208" height="10" rx="3" fill="#ffffff"/>
	<path d="M482 278h13M488.5 272v13" fill="none" stroke="#ffffff" stroke-width="2.2" stroke-linecap="round"/>
</svg>
