<svg xmlns="http://www.w3.org/2000/svg" width="600" height="400" viewBox="0 0 600 400" role="img" aria-label="Preview of the troubleshooting template">
	<rect width="600" height="400" fill="#f6f7f9"/>
	<rect x="190" y="40" width="220" height="18" rx="3" fill="#2b3440"/><rect x="150" y="72" width="300" height="10" rx="3" fill="#c7ccd4"/>
	<rect x="80" y="122" width="440" height="50" rx="4" fill="#ffffff" stroke="#dde1e7"/><rect x="80" y="122" width="4" height="50" fill="#dba617"/><circle cx="106" cy="147" r="9" fill="#fdf6e3" stroke="#dba617"/><text x="106" y="152" font-family="system-ui,-apple-system,Segoe UI,sans-serif" font-size="12" font-weight="700" fill="#dba617" text-anchor="middle">!</text><rect x="128" y="136" width="214" height="10" rx="3" fill="#2b3440"/><rect x="128" y="153" width="150" height="8" rx="3" fill="#8b95a3"/><path d="M478 142l7 7 7-7" fill="none" stroke="#c7ccd4" stroke-width="2.5" stroke-linecap="round"/>
	<rect x="80" y="182" width="440" height="50" rx="4" fill="#ffffff" stroke="#dde1e7"/><rect x="80" y="182" width="4" height="50" fill="#dba617"/><circle cx="106" cy="207" r="9" fill="#fdf6e3" stroke="#dba617"/><text x="106" y="212" font-family="system-ui,-apple-system,Segoe UI,sans-serif" font-size="12" font-weight="700" fill="#dba617" text-anchor="middle">!</text><rect x="128" y="196" width="172" height="10" rx="3" fill="#2b3440"/><rect x="128" y="213" width="200" height="8" rx="3" fill="#8b95a3"/><path d="M478 202l7 7 7-7" fill="none" stroke="#c7ccd4" stroke-width="2.5" stroke-linecap="round"/>
	<rect x="80" y="242" width="440" height="50" rx="4" fill="#ffffff" stroke="#dde1e7"/><rect x="80" y="242" width="4" height="50" fill="#dba617"/><circle cx="106" cy="267" r="9" fill="#fdf6e3" stroke="#dba617"/><text x="106" y="272" font-family="system-ui,-apple-system,Segoe UI,sans-serif" font-size="12" font-weight="700" fill="#dba617" text-anchor="middle">!</text><rect x="128" y="256" width="236" height="10" rx="3" fill="#2b3440"/><rect x="128" y="273" width="128" height="8" rx="3" fill="#8b95a3"/><path d="M478 262l7 7 7-7" fill="none" stroke="#c7ccd4" stroke-width="2.5" stroke-linecap="round"/>
	<rect x="80" y="302" width="440" height="50" rx="4" fill="#ffffff" stroke="#dde1e7"/><rect x="80" y="302" width="4" height="50" fill="#dba617"/><circle cx="106" cy="327" r="9" fill="#fdf6e3" stroke="#dba617"/><text x="106" y="332" font-family="system-ui,-apple-system,Segoe UI,sans-serif" font-size="12" font-weight="700" fill="#dba617" text-anchor="middle">!</text><rect x="128" y="316" width="190" height="10" rx="3" fill="#2b3440"/><rect x="128" y="333" width="164" height="8" rx="3" fill="#8b95a3"/><path d="M478 322l7 7 7-7" fill="none" stroke="#c7ccd4" stroke-width="2.5" stroke-linecap="round"/>
</svg>
